<svg xmlns="http://www.w3.org/2000/svg" width="500" height="500" viewBox="0 0 500 500"><defs><style>.a{fill:#3d5a45}.b{fill:#293b29;stroke:#212f0b;stroke-width:3px}.c,.f{fill:#fff}.c{font-size:10px;font-family:HelveticaNeue,Helvetica Neue}.d{fill:#ccc;stroke:#ff7600;stroke-linejoin:round}.e{fill:#ff7600}.g{filter:url(#a)}</style><filter id="a" x="0" y="0" width="500" height="500" filterUnits="userSpaceOnUse"><feOffset dy="3"/><feGaussianBlur stdDeviation="25" result="b"/><feFlood flood-opacity=".302"/><feComposite operator="in" in2="b"/><feComposite in="SourceGraphic"/></filter></defs><g transform="translate(-390 -153)"><g class="g" transform="translate(390 153)"><rect class="a" width="350" height="350" rx="72" transform="translate(75 72)"/></g><path class="b" d="M640 245a155 155 0 0 1 155 155 155 155 0 0 1-155 155 155 155 0 0 1-155-155 155 155 0 0 1 155-155z"/><text class="c" transform="translate(640 299.315)"><tspan x="-5.56" y="0">12</tspan></text><text class="c" transform="translate(692.127 314.521)"><tspan x="-2.78" y="0">1</tspan></text><text class="c" transform="translate(588.718 314.521)"><tspan x="-5.56" y="0">11</tspan></text><text class="c" transform="translate(709.403 281.671)"><tspan x="-5.56" y="0">13</tspan></text><text class="c" transform="translate(570.598 281.671)"><tspan x="-5.56" y="0">23</tspan></text><text class="c" transform="translate(728.824 350.597)"><tspan x="-2.78" y="0">2</tspan></text><text class="c" transform="translate(551.176 350.597)"><tspan x="-5.56" y="0">10</tspan></text><text class="c" transform="translate(742.565 403.757)"><tspan x="-2.78" y="0">3</tspan></text><text class="c" transform="translate(537.436 403.757)"><tspan x="-2.78" y="0">9</tspan></text><text class="c" transform="translate(728.824 454.813)"><tspan x="-2.78" y="0">4</tspan></text><text class="c" transform="translate(551.176 454.813)"><tspan x="-2.78" y="0">8</tspan></text><text class="c" transform="translate(692.127 493.809)"><tspan x="-2.78" y="0">5</tspan></text><text class="c" transform="translate(589.185 493.809)"><tspan x="-2.78" y="0">7</tspan></text><text class="c" transform="translate(640 507.605)"><tspan x="-2.78" y="0">6</tspan></text><text class="c" transform="translate(762.209 332.477)"><tspan x="-5.56" y="0">14</tspan></text><text class="c" transform="translate(517.435 332.477)"><tspan x="-5.56" y="0">22</tspan></text><text class="c" transform="translate(780.805 403.757)"><tspan x="-5.56" y="0">15</tspan></text><text class="c" transform="translate(498.822 403.757)"><tspan x="-5.56" y="0">21</tspan></text><text class="c" transform="translate(762.209 475.132)"><tspan x="-5.56" y="0">16</tspan></text><text class="c" transform="translate(517.435 475.132)"><tspan x="-5.56" y="0">20</tspan></text><text class="c" transform="translate(709.402 525.813)"><tspan x="-5.56" y="0">17</tspan></text><text class="c" transform="translate(570.597 525.813)"><tspan x="-5.56" y="0">19</tspan></text><text class="c" transform="translate(640 263.075)"><tspan x="-5.56" y="0">24</tspan></text><text class="c" transform="translate(640 543.642)"><tspan x="-5.56" y="0">18</tspan></text><path class="d" d="M640 265.435v24M707.282 283.464l-12 20.785M756.537 332.718l-20.785 12M774.565 400h-24M756.537 467.282l-20.785-12M707.282 516.537l-12-20.785M640 534.565v-24M572.718 516.537l12-20.785M523.464 467.282l20.785-12M505.435 400h24M523.464 332.718l20.785 12M572.718 283.464l12 20.785"/><path class="e" d="M672.826 277.945l.7 2.864 2.132 2.035-2.864.7-2.035 2.132-.7-2.864-2.132-2.035 2.864-.7zM729.451 310.711l-.828 2.828.828 2.828-2.828-.828-2.828.828.828-2.828-.828-2.828 2.828.828zM762.116 367.4l-2.132 2.035-.7 2.864-2.035-2.132-2.864-.7 2.132-2.035.7-2.864 2.034 2.132zM762.051 432.826l-2.864.7-2.035 2.132-.7-2.864-2.132-2.035 2.864-.7 2.035-2.132.7 2.864zM729.29 489.455l-2.828-.828-2.828.828.828-2.828-.828-2.828 2.828.828 2.828-.828-.828 2.828zM672.6 522.116l-2.035-2.132-2.864-.7 2.132-2.035.7-2.864 2.035 2.132 2.864.7-2.132 2.035zM607.174 522.055l-.7-2.864-2.132-2.035 2.864-.7 2.035-2.132.7 2.864 2.132 2.035-2.864.7zM550.545 489.29l.828-2.828-.828-2.828 2.828.828 2.828-.828-.828 2.828.828 2.828-2.828-.828zM517.884 432.6l2.132-2.035.7-2.864 2.035 2.132 2.864.7-2.132 2.035-.7 2.864-2.032-2.132zM517.945 367.175l2.864-.7 2.035-2.132.7 2.864 2.132 2.035-2.864.7-2.035 2.132-.7-2.864zM550.709 310.545l2.828.828 2.828-.828-.828 2.828.828 2.828-2.828-.828-2.828.828.828-2.828zM607.399 277.885l2.035 2.132 2.864.7-2.132 2.035-.7 2.864-2.035-2.132-2.864-.7 2.132-2.035z"/><circle class="f" cx="1" cy="1" r="1" transform="translate(649.638 277.41)"/><circle class="f" cx="1" cy="1" r="1" transform="translate(660.195 278.799)"/><circle class="f" cx="1" cy="1" r="1" transform="translate(680.746 284.306)"/><circle class="f" cx="1" cy="1" r="1" transform="translate(690.584 288.381)"/><circle class="f" cx="1" cy="1" r="1" transform="translate(709.01 299.02)"/><circle class="f" cx="1" cy="1" r="1" transform="translate(717.457 305.502)"/><circle class="f" cx="1" cy="1" r="1" transform="translate(732.502 320.547)"/><circle class="f" cx="1" cy="1" r="1" transform="translate(738.984 328.995)"/><circle class="f" cx="1" cy="1" r="1" transform="translate(749.621 347.421)"/><circle class="f" cx="1" cy="1" r="1" transform="translate(753.696 357.259)"/><circle class="f" cx="1" cy="1" r="1" transform="translate(759.202 377.81)"/><circle class="f" cx="1" cy="1" r="1" transform="translate(760.591 388.368)"/><circle class="f" cx="1" cy="1" r="1" transform="translate(760.59 409.638)"/><circle class="f" cx="1" cy="1" r="1" transform="translate(759.201 420.195)"/><circle class="f" cx="1" cy="1" r="1" transform="translate(753.694 440.746)"/><circle class="f" cx="1" cy="1" r="1" transform="translate(749.619 450.584)"/><circle class="f" cx="1" cy="1" r="1" transform="translate(738.98 469.01)"/><circle class="f" cx="1" cy="1" r="1" transform="translate(732.498 477.457)"/><circle class="f" cx="1" cy="1" r="1" transform="translate(717.453 492.501)"/><circle class="f" cx="1" cy="1" r="1" transform="translate(709.005 498.984)"/><circle class="f" cx="1" cy="1" r="1" transform="translate(690.579 509.621)"/><circle class="f" cx="1" cy="1" r="1" transform="translate(680.741 513.696)"/><circle class="f" cx="1" cy="1" r="1" transform="translate(660.19 519.202)"/><circle class="f" cx="1" cy="1" r="1" transform="translate(649.632 520.591)"/><circle class="f" cx="1" cy="1" r="1" transform="translate(628.362 520.59)"/><circle class="f" cx="1" cy="1" r="1" transform="translate(617.805 519.201)"/><circle class="f" cx="1" cy="1" r="1" transform="translate(597.254 513.694)"/><circle class="f" cx="1" cy="1" r="1" transform="translate(587.416 509.619)"/><circle class="f" cx="1" cy="1" r="1" transform="translate(568.99 498.98)"/><circle class="f" cx="1" cy="1" r="1" transform="translate(560.543 492.498)"/><circle class="f" cx="1" cy="1" r="1" transform="translate(545.499 477.453)"/><circle class="f" cx="1" cy="1" r="1" transform="translate(539.016 469.005)"/><circle class="f" cx="1" cy="1" r="1" transform="translate(528.379 450.579)"/><circle class="f" cx="1" cy="1" r="1" transform="translate(524.304 440.741)"/><circle class="f" cx="1" cy="1" r="1" transform="translate(518.799 420.19)"/><circle class="f" cx="1" cy="1" r="1" transform="translate(517.409 409.632)"/><circle class="f" cx="1" cy="1" r="1" transform="translate(517.41 388.362)"/><circle class="f" cx="1" cy="1" r="1" transform="translate(518.799 377.805)"/><circle class="f" cx="1" cy="1" r="1" transform="translate(524.306 357.254)"/><circle class="f" cx="1" cy="1" r="1" transform="translate(528.381 347.416)"/><circle class="f" cx="1" cy="1" r="1" transform="translate(539.02 328.99)"/><circle class="f" cx="1" cy="1" r="1" transform="translate(545.502 320.543)"/><circle class="f" cx="1" cy="1" r="1" transform="translate(560.547 305.498)"/><circle class="f" cx="1" cy="1" r="1" transform="translate(568.995 299.016)"/><circle class="f" cx="1" cy="1" r="1" transform="translate(587.421 288.379)"/><circle class="f" cx="1" cy="1" r="1" transform="translate(597.259 284.304)"/><circle class="f" cx="1" cy="1" r="1" transform="translate(617.81 278.798)"/><circle class="f" cx="1" cy="1" r="1" transform="translate(628.368 277.409)"/></g></svg>